<svg xmlns="http://www.w3.org/2000/svg" xmlns:xlink="http://www.w3.org/1999/xlink" version="1.1" width="256" height="256" viewBox="0 0 256 256" xml:space="preserve">

<defs>
</defs>
<g style="stroke: none; stroke-width: 0; stroke-dasharray: none; stroke-linecap: butt; stroke-linejoin: miter; stroke-miterlimit: 10; fill: none; fill-rule: nonzero; opacity: 1;" transform="translate(1.4065934065934016 1.4065934065934016) scale(2.81 2.81)">
	<circle cx="28.76" cy="74.14" r="7.5" style="stroke: none; stroke-width: 1; stroke-dasharray: none; stroke-linecap: butt; stroke-linejoin: miter; stroke-miterlimit: 10; fill: rgb(102,102,102); fill-rule: nonzero; opacity: 1;" transform="  matrix(1 0 0 1 0 0) "/>
	<circle cx="72.29" cy="74.14" r="7.5" style="stroke: none; stroke-width: 1; stroke-dasharray: none; stroke-linecap: butt; stroke-linejoin: miter; stroke-miterlimit: 10; fill: rgb(102,102,102); fill-rule: nonzero; opacity: 1;" transform="  matrix(1 0 0 1 0 0) "/>
	<path d="M 89.329 20.5 c -0.569 -0.702 -1.426 -1.109 -2.329 -1.109 H 17.02 l -0.756 -3.503 c -0.943 -4.365 -4.869 -7.533 -9.334 -7.533 H 3 c -1.657 0 -3 1.343 -3 3 s 1.343 3 3 3 h 3.93 c 1.66 0 3.119 1.178 3.469 2.8 l 1.267 5.869 l 6.507 30.136 c 1.095 5.073 5.657 8.755 10.847 8.755 h 43.743 c 5.22 0 9.787 -3.708 10.86 -8.817 l 6.313 -30.09 C 90.122 22.123 89.898 21.202 89.329 20.5 z" style="stroke: none; stroke-width: 1; stroke-dasharray: none; stroke-linecap: butt; stroke-linejoin: miter; stroke-miterlimit: 10; fill: rgb(216,68,68); fill-rule: nonzero; opacity: 1;" transform=" matrix(1 0 0 1 0 0) " stroke-linecap="round"/>
	<path d="M 50.853 48.946 c -1.657 0 -3 -1.344 -3 -3 V 33.753 c 0 -1.657 1.343 -3 3 -3 s 3 1.343 3 3 v 12.193 C 53.853 47.603 52.511 48.946 50.853 48.946 z" style="stroke: none; stroke-width: 1; stroke-dasharray: none; stroke-linecap: butt; stroke-linejoin: miter; stroke-miterlimit: 10; fill: rgb(255,255,255); fill-rule: nonzero; opacity: 1;" transform=" matrix(1 0 0 1 0 0) " stroke-linecap="round"/>
	<path d="M 65.74 48.946 c -0.172 0 -0.345 -0.015 -0.52 -0.045 c -1.632 -0.285 -2.725 -1.839 -2.439 -3.471 l 2.126 -12.193 c 0.284 -1.634 1.837 -2.726 3.471 -2.44 c 1.632 0.285 2.725 1.839 2.439 3.471 l -2.126 12.193 C 68.437 47.919 67.171 48.946 65.74 48.946 z" style="stroke: none; stroke-width: 1; stroke-dasharray: none; stroke-linecap: butt; stroke-linejoin: miter; stroke-miterlimit: 10; fill: rgb(255,255,255); fill-rule: nonzero; opacity: 1;" transform=" matrix(1 0 0 1 0 0) " stroke-linecap="round"/>
	<path d="M 35.859 48.946 c -1.431 0 -2.698 -1.027 -2.952 -2.485 l -2.126 -12.193 c -0.285 -1.632 0.808 -3.186 2.44 -3.471 c 1.632 -0.284 3.186 0.808 3.471 2.44 l 2.126 12.193 c 0.285 1.632 -0.808 3.186 -2.44 3.471 C 36.203 48.932 36.03 48.946 35.859 48.946 z" style="stroke: none; stroke-width: 1; stroke-dasharray: none; stroke-linecap: butt; stroke-linejoin: miter; stroke-miterlimit: 10; fill: rgb(255,255,255); fill-rule: nonzero; opacity: 1;" transform=" matrix(1 0 0 1 0 0) " stroke-linecap="round"/>
</g>
</svg>